<svg width="40" height="40" viewBox="0 0 40 40" fill="none" xmlns="http://www.w3.org/2000/svg">
  <!-- Background circle with gradient -->
  <circle cx="20" cy="20" r="18" fill="url(#bgGradient)"/>

  <!-- Envelope body -->
  <rect x="8" y="13" width="24" height="16" rx="2" fill="url(#envelopeGradient)" stroke="#f8f8f2" stroke-width="1.5"/>

  <!-- Envelope flap closed line -->
  <path d="M8 13L20 22L32 13" stroke="#bd93f9" stroke-width="2" stroke-linecap="round" stroke-linejoin="round"/>

  <!-- Envelope top flap -->
  <path d="M20 22L8 13V15L20 23.5L32 15V13L20 22Z" fill="#ff79c6" fill-opacity="0.6"/>

  <!-- NestJS-inspired angular accent -->
  <path d="M20 18L16 15L20 12L24 15L20 18Z" fill="#50fa7b" fill-opacity="0.8"/>

  <!-- Lightning bolt accent (speed/delivery) -->
  <path d="M27 24L25 27L26.5 27L25.5 30L28 27L26.5 27L27 24Z" fill="#f1fa8c" stroke="#ffb86c" stroke-width="0.5"/>

  <!-- Gradient definitions -->
  <defs>
    <linearGradient id="bgGradient" x1="2" y1="2" x2="38" y2="38" gradientUnits="userSpaceOnUse">
      <stop offset="0%" stop-color="#282a36"/>
      <stop offset="100%" stop-color="#44475a"/>
    </linearGradient>
    <linearGradient id="envelopeGradient" x1="8" y1="13" x2="32" y2="29" gradientUnits="userSpaceOnUse">
      <stop offset="0%" stop-color="#6272a4"/>
      <stop offset="50%" stop-color="#8be9fd"/>
      <stop offset="100%" stop-color="#bd93f9"/>
    </linearGradient>
  </defs>
</svg>